Coordinates
version=1
nRows=42
nColumns=38
inDegrees=no

Units are S.I. units (second, meters, Newtons, ...)
If the header above contains a line with 'inDegrees', this indicates whether rotational values are in degrees (yes) or radians (no).

endheader
time	pelvis_tilt	pelvis_list	pelvis_rotation	pelvis_tx	pelvis_ty	pelvis_tz	hip_flexion_r	hip_adduction_r	hip_rotation_r	knee_angle_r	ankle_angle_r	subtalar_angle_r	mtp_angle_r	hip_flexion_l	hip_adduction_l	hip_rotation_l	knee_angle_l	ankle_angle_l	subtalar_angle_l	mtp_angle_l	lumbar_extension	lumbar_bending	lumbar_rotation	arm_flex_r	arm_add_r	arm_rot_r	elbow_flex_r	pro_sup_r	wrist_flex_r	wrist_dev_r	arm_flex_l	arm_add_l	arm_rot_l	elbow_flex_l	pro_sup_l	wrist_flex_l	wrist_dev_l
70	-3.02409	1.48865	-1.74544	0.663581	0.322912	0.929633	-0.179883	-0.0822256	-0.38459	0	-0.0559472	0	0	-0.188842	-0.0234933	-0.391815	0	-0.0490851	0	0	-0.260815	-0.0350892	0.0463005	0.104913	-0.252759	0.471678	0.456038	1.22862	0	0	0.156343	-0.214655	0.238465	0.568412	1.5708	0	0
70.01	-3.02042	1.48931	-1.74912	0.663569	0.322942	0.929632	-0.179038	-0.0825008	-0.384348	0	-0.0561524	0	0	-0.187945	-0.0233313	-0.391679	0	-0.0493074	0	0	-0.260475	-0.035014	0.0455568	0.103428	-0.253637	0.471426	0.453089	1.22395	0	0	0.151618	-0.214623	0.238799	0.559826	1.5708	0	0
70.02	-3.01704	1.48979	-1.75239	0.663578	0.322951	0.929658	-0.178428	-0.0827064	-0.384437	0	-0.0562117	0	0	-0.187233	-0.0232267	-0.391289	0	-0.0496023	0	0	-0.260465	-0.035081	0.0447071	0.101811	-0.254318	0.471022	0.450581	1.21876	0	0	0.146894	-0.214622	0.238091	0.551971	1.5708	0	0
70.03	-3.01179	1.49033	-1.75756	0.663586	0.322902	0.929691	-0.177687	-0.0830278	-0.384587	0	-0.0562373	0	0	-0.186386	-0.0229561	-0.390942	0	-0.0499258	0	0	-0.260403	-0.0353277	0.0438299	0.100291	-0.254778	0.471042	0.447954	1.21293	0	0	0.142002	-0.21494	0.238053	0.544868	1.5708	0	0
70.04	-3.00485	1.49107	-1.76471	0.663644	0.322918	0.929682	-0.176691	-0.0835102	-0.384274	0	-0.0563218	0	0	-0.185406	-0.022492	-0.391054	0	-0.0504117	0	0	-0.259962	-0.0356796	0.0433181	0.0985669	-0.255369	0.471659	0.445644	1.20592	0	0	0.136677	-0.215511	0.240346	0.53828	1.5708	0	0
70.05	-3.00121	1.49177	-1.76832	0.663666	0.322923	0.929663	-0.175838	-0.0836616	-0.384013	0	-0.0565113	0	0	-0.184531	-0.0223187	-0.391194	0	-0.0507327	0	0	-0.259642	-0.0356546	0.0426676	0.0967832	-0.256157	0.472534	0.444029	1.19796	0	0	0.131317	-0.216058	0.24284	0.532123	1.5708	0	0
70.06	-3.00011	1.49224	-1.76938	0.66367	0.322953	0.929676	-0.175356	-0.0835944	-0.383759	0	-0.0567366	0	0	-0.184093	-0.0223409	-0.391475	0	-0.0507353	0	0	-0.259782	-0.0354975	0.042058	0.0949974	-0.25445	0.457193	0.439876	1.22808	0	0	0.125674	-0.21618	0.24212	0.527233	1.5708	0	0
70.07	-2.99888	1.49235	-1.77052	0.663711	0.323024	0.929706	-0.175293	-0.0836413	-0.383523	0	-0.0566718	0	0	-0.184131	-0.022271	-0.391716	0	-0.0505714	0	0	-0.260171	-0.0353773	0.0414396	0.0930639	-0.254776	0.455082	0.439122	1.22524	0	0	0.120399	-0.21657	0.243345	0.522278	1.5708	0	0
70.08	-2.99892	1.49262	-1.77048	0.663725	0.323017	0.929717	-0.175022	-0.0835176	-0.383546	0	-0.056632	0	0	-0.1839	-0.0223233	-0.392004	0	-0.0504598	0	0	-0.26041	-0.0351971	0.0410262	0.0911895	-0.255153	0.453447	0.437929	1.22288	0	0	0.115308	-0.216838	0.244701	0.517707	1.5708	0	0
70.09	-3.00076	1.49296	-1.76883	0.66379	0.323005	0.9297	-0.17466	-0.0832403	-0.38337	0	-0.0567996	0	0	-0.183611	-0.022508	-0.392484	0	-0.0504455	0	0	-0.260635	-0.0349618	0.0409703	0.0892408	-0.255471	0.451933	0.437386	1.22072	0	0	0.110247	-0.217145	0.24621	0.51383	1.5708	0	0
70.1	-3.00361	1.49325	-1.76623	0.663862	0.323024	0.929679	-0.174373	-0.0828996	-0.383025	0	-0.0570191	0	0	-0.183448	-0.0228041	-0.392887	0	-0.0507159	0	0	-0.260892	-0.034698	0.0410568	0.087297	-0.255762	0.450641	0.437456	1.21883	0	0	0.105101	-0.217623	0.248603	0.510693	1.5708	0	0
70.11	-3.00523	1.49334	-1.76417	0.663859	0.32296	0.929705	-0.174323	-0.0826781	-0.383295	0	-0.0572239	0	0	-0.183287	-0.0230227	-0.392389	0	-0.0511544	0	0	-0.261594	-0.034446	0.0405548	0.0856608	-0.25612	0.449491	0.437097	1.21824	0	0	0.100216	-0.218325	0.252418	0.508504	1.5708	0	0
70.12	-3.00468	1.49313	-1.76379	0.663785	0.322824	0.929749	-0.174537	-0.0826312	-0.384123	0	-0.0573054	0	0	-0.1832	-0.0231057	-0.390892	0	-0.0516429	0	0	-0.262863	-0.0343638	0.0396002	0.0842359	-0.256165	0.447609	0.437088	1.21813	0	0	0.0958566	-0.219037	0.255245	0.507248	1.5708	0	0
70.13	-3.00393	1.4927	-1.76462	0.663921	0.322854	0.929699	-0.174877	-0.0827553	-0.384577	0	-0.0569628	0	0	-0.183587	-0.0230766	-0.391243	0	-0.0516757	0	0	-0.263193	-0.034829	0.0400281	0.081719	-0.26507	0.503505	0.450759	1.06162	0	0	0.0874557	-0.240111	0.370715	0.535983	1.22038	0	0
70.14	-2.9374	1.50122	-1.83301	0.664325	0.323379	0.928639	-0.16411	-0.0860598	-0.390893	0	-0.0477574	0	0	-0.173517	-0.0197631	-0.397959	0	-0.047137	0	0	-0.253786	-0.0388811	0.0376132	0.0771256	-0.26037	0.479476	0.456805	1.00595	0	0	0.0627143	-0.238386	0.318144	0.577628	1.0652	0	0
70.15	-3.01101	1.49374	-1.75901	0.664205	0.323052	0.929602	-0.173747	-0.0821468	-0.383133	0	-0.0568803	0	0	-0.182999	-0.0239689	-0.394136	0	-0.0512947	0	0	-0.262763	-0.0346864	0.0415381	0.0778866	-0.265099	0.49999	0.45157	1.06176	0	0	0.0776108	-0.240485	0.371235	0.535972	1.22279	0	0
70.16	-3.01335	1.49442	-1.75673	0.664249	0.323146	0.929615	-0.17312	-0.0818835	-0.381753	0	-0.0572628	0	0	-0.182453	-0.024376	-0.394015	0	-0.0513499	0	0	-0.263231	-0.0343329	0.0416776	0.0768359	-0.255403	0.439159	0.437898	1.222	0	0	0.0770372	-0.221006	0.262553	0.507938	1.5708	0	0
70.17	-3.01276	1.49459	-1.75715	0.664344	0.323206	0.92962	-0.172977	-0.0818617	-0.381251	0	-0.0573831	0	0	-0.182262	-0.0245245	-0.393726	0	-0.0515901	0	0	-0.263459	-0.0345596	0.0416686	0.0751538	-0.255159	0.439097	0.438989	1.22044	0	0	0.0728405	-0.221348	0.26257	0.509452	1.5708	0	0
70.18	-3.01147	1.49491	-1.75829	0.664396	0.323218	0.929655	-0.172583	-0.0818501	-0.381166	0	-0.0576265	0	0	-0.181791	-0.0246428	-0.393647	0	-0.0519105	0	0	-0.26361	-0.0348041	0.0417847	0.0735078	-0.254905	0.439478	0.440238	1.21842	0	0	0.0690583	-0.221568	0.262666	0.511214	1.5708	0	0
70.19	-3.01007	1.4954	-1.75943	0.664442	0.323258	0.929682	-0.171979	-0.0817909	-0.381207	0	-0.0577343	0	0	-0.181089	-0.0248161	-0.39347	0	-0.0521502	0	0	-0.263605	-0.0350569	0.041896	0.0717649	-0.254572	0.439373	0.44182	1.21584	0	0	0.0655582	-0.221751	0.262853	0.513189	1.5708	0	0
70.2	-3.009	1.49635	-1.76048	0.664545	0.323296	0.929669	-0.170915	-0.081654	-0.380887	0	-0.0576468	0	0	-0.18001	-0.025087	-0.393626	0	-0.0520851	0	0	-0.262959	-0.0352608	0.0422816	0.0699362	-0.25427	0.438697	0.443739	1.21285	0	0	0.062023	-0.221992	0.263757	0.51517	1.5708	0	0
70.21	-3.00783	1.4974	-1.76124	0.664616	0.323327	0.929663	-0.169738	-0.0814169	-0.380929	0	-0.0577328	0	0	-0.178667	-0.0254328	-0.393317	0	-0.0523996	0	0	-0.262271	-0.0353811	0.0423273	0.0683949	-0.25399	0.438119	0.445952	1.20988	0	0	0.0588658	-0.222168	0.264454	0.517022	1.5708	0	0
70.22	-3.00532	1.49845	-1.76385	0.664765	0.323389	0.929655	-0.168495	-0.0812723	-0.380749	0	-0.0578642	0	0	-0.177414	-0.0255801	-0.39399	0	-0.0528507	0	0	-0.261477	-0.0357249	0.0429031	0.0668327	-0.253625	0.438197	0.448416	1.20814	0	0	0.055961	-0.222081	0.262829	0.519616	1.5708	0	0
70.23	-3.00266	1.49943	-1.76697	0.664922	0.323419	0.92965	-0.167319	-0.0811371	-0.380457	0	-0.057936	0	0	-0.176358	-0.025661	-0.395055	0	-0.0532047	0	0	-0.260706	-0.0361947	0.0438774	0.0653096	-0.253212	0.439174	0.45044	1.20793	0	0	0.0532415	-0.222002	0.260944	0.522555	1.5708	0	0
70.24	-2.99997	1.50047	-1.76967	0.665115	0.323541	0.929587	-0.166034	-0.0810009	-0.38037	0	-0.0581161	0	0	-0.175078	-0.0257781	-0.395346	0	-0.0534279	0	0	-0.259969	-0.0365895	0.0444539	0.0640928	-0.252878	0.440373	0.452343	1.20766	0	0	0.0510148	-0.221933	0.25862	0.525764	1.5708	0	0
70.25	-2.99623	1.50161	-1.77324	0.665169	0.323441	0.929566	-0.164683	-0.0808174	-0.3805	0	-0.0581829	0	0	-0.173659	-0.0259257	-0.395381	0	-0.053691	0	0	-0.259272	-0.0370124	0.0448489	0.0631602	-0.252517	0.441163	0.454116	1.20647	0	0	0.0492175	-0.221893	0.255794	0.529095	1.5708	0	0
70.26	-2.99345	1.50257	-1.77584	0.665296	0.323375	0.92956	-0.163559	-0.0805683	-0.380508	0	-0.0581714	0	0	-0.172449	-0.026128	-0.395289	0	-0.0540204	0	0	-0.258772	-0.0374299	0.0452616	0.0623112	-0.252118	0.441383	0.456437	1.2048	0	0	0.0477233	-0.221843	0.25256	0.532602	1.5708	0	0
70.27	-2.99112	1.50355	-1.77797	0.665442	0.323338	0.929539	-0.162413	-0.0803186	-0.380564	0	-0.0584058	0	0	-0.171223	-0.0263846	-0.395043	0	-0.0542255	0	0	-0.258199	-0.0378266	0.0457097	0.0616046	-0.251736	0.441839	0.45891	1.20429	0	0	0.0464839	-0.221818	0.248931	0.536594	1.5708	0	0
70.28	-2.98949	1.50446	-1.77943	0.665576	0.323323	0.929523	-0.161367	-0.0800814	-0.380449	0	-0.0587354	0	0	-0.170105	-0.0266707	-0.394689	0	-0.0544343	0	0	-0.257671	-0.0381094	0.0461257	0.0612226	-0.251369	0.443629	0.460975	1.20569	0	0	0.0454846	-0.221712	0.244714	0.540824	1.5708	0	0
70.29	-2.98854	1.50517	-1.77995	0.665631	0.323254	0.929535	-0.160566	-0.0798131	-0.380601	0	-0.0591286	0	0	-0.169124	-0.0270128	-0.393904	0	-0.0548571	0	0	-0.257465	-0.0382848	0.0462696	0.0613426	-0.250986	0.447131	0.462513	1.20809	0	0	0.0449506	-0.221573	0.24006	0.545049	1.5708	0	0
70.3	-2.9883	1.50591	-1.77974	0.665727	0.323152	0.929549	-0.159661	-0.0794814	-0.381036	0	-0.0596419	0	0	-0.168004	-0.0274433	-0.393026	0	-0.0552974	0	0	-0.257322	-0.0384889	0.0463897	0.0617543	-0.250622	0.449247	0.46409	1.20859	0	0	0.0449157	-0.221486	0.234911	0.54938	1.5708	0	0
70.31	-2.98824	1.50689	-1.78016	0.665909	0.323052	0.929543	-0.158388	-0.0791212	-0.381129	0	-0.0596521	0	0	-0.166772	-0.0279054	-0.393229	0	-0.0554426	0	0	-0.256816	-0.0388707	0.0473779	0.0619497	-0.250284	0.449846	0.466794	1.20768	0	0	0.045033	-0.22149	0.229883	0.55387	1.5708	0	0
70.32	-2.98805	1.50736	-1.77977	0.666097	0.323099	0.929541	-0.157978	-0.0786997	-0.380852	0	-0.0578628	0	0	-0.165874	-0.0283512	-0.392487	0	-0.0556832	0	0	-0.256838	-0.0391945	0.0474641	0.0622084	-0.24993	0.450884	0.46998	1.2081	0	0	0.0454226	-0.221676	0.224749	0.558956	1.5708	0	0
70.33	-2.98769	1.50797	-1.77942	0.66612	0.322892	0.92958	-0.157655	-0.0781506	-0.379834	0	-0.0551357	0	0	-0.164949	-0.0288442	-0.391648	0	-0.0559471	0	0	-0.25674	-0.0394323	0.0473531	0.0626982	-0.249608	0.452402	0.472413	1.20967	0	0	0.0459676	-0.221956	0.219513	0.564179	1.5708	0	0
70.34	-2.98316	1.50884	-1.78357	0.666226	0.322838	0.929528	-0.156345	-0.0782579	-0.380552	0	-0.0578036	0	0	-0.163732	-0.0290516	-0.390817	0	-0.0561864	0	0	-0.256153	-0.0399419	0.0474425	0.06321	-0.24944	0.453287	0.475112	1.21066	0	0	0.0465105	-0.222453	0.214961	0.569632	1.5708	0	0
70.35	-2.97796	1.50959	-1.78845	0.666423	0.322907	0.929448	-0.155203	-0.0784397	-0.38107	0	-0.0594813	0	0	-0.162638	-0.0291333	-0.389828	0	-0.0563046	0	0	-0.255593	-0.0404783	0.0475925	0.0637198	-0.249244	0.454393	0.477992	1.21125	0	0	0.0470507	-0.223101	0.211348	0.575183	1.5708	0	0
70.36	-2.97675	1.51021	-1.78947	0.666476	0.32278	0.929428	-0.15444	-0.0782295	-0.381096	0	-0.0595793	0	0	-0.161774	-0.0294902	-0.389372	0	-0.0561751	0	0	-0.255275	-0.0408396	0.0478419	0.0644715	-0.24908	0.455829	0.480222	1.21254	0	0	0.0477587	-0.223668	0.20694	0.581076	1.5708	0	0
70.37	-2.978	1.51079	-1.78809	0.66663	0.322757	0.92941	-0.153705	-0.077858	-0.381227	0	-0.0596662	0	0	-0.160943	-0.0299614	-0.389091	0	-0.0560959	0	0	-0.254988	-0.0411407	0.0480935	0.0652541	-0.249113	0.456252	0.482629	1.21337	0	0	0.0485361	-0.224284	0.202138	0.5873	1.5708	0	0
70.38	-2.97992	1.51133	-1.78611	0.66678	0.322693	0.929426	-0.153004	-0.0773796	-0.381183	0	-0.0595507	0	0	-0.160142	-0.0304632	-0.388885	0	-0.0561125	0	0	-0.254818	-0.0414284	0.0484142	0.0661641	-0.24908	0.456367	0.485247	1.21335	0	0	0.0495604	-0.225057	0.197171	0.593614	1.5708	0	0
70.39	-2.97593	1.51201	-1.78999	0.666912	0.322527	0.92945	-0.15226	-0.0771808	-0.380585	0	-0.0577271	0	0	-0.159026	-0.0305632	-0.389127	0	-0.0563128	0	0	-0.254552	-0.0420063	0.0486102	0.0672458	-0.249088	0.456172	0.488169	1.21257	0	0	0.0508031	-0.225825	0.191994	0.599786	1.5708	0	0
70.4	-2.96924	1.51289	-1.79661	0.667022	0.322496	0.929407	-0.151289	-0.0771008	-0.379493	0	-0.0548844	0	0	-0.157586	-0.0305324	-0.389309	0	-0.0562877	0	0	-0.253994	-0.042657	0.0487519	0.0683168	-0.249109	0.45557	0.49119	1.21157	0	0	0.0520804	-0.226585	0.186841	0.605923	1.5708	0	0
70.41	-2.96372	1.51367	-1.80216	0.667165	0.32238	0.929376	-0.149873	-0.077341	-0.380508	0	-0.0574159	0	0	-0.156368	-0.0305609	-0.389035	0	-0.056811	0	0	-0.253584	-0.0432256	0.0488157	0.0695494	-0.249039	0.455226	0.493492	1.21122	0	0	0.0534473	-0.22737	0.181958	0.611889	1.5708	0	0
